<?xml version="1.0" encoding="UTF-8" standalone="no"?>
<!-- Created with Inkscape (http://www.inkscape.org/) -->

<svg
   width="167.24298mm"
   height="202.21474mm"
   viewBox="0 0 167.24298 202.21474"
   version="1.1"
   id="svg1"
   xml:space="preserve"
   xmlns="http://www.w3.org/2000/svg"
   xmlns:svg="http://www.w3.org/2000/svg"><defs
     id="defs1"><style
       id="style12978">.cls-1{fill:none;}.cls-2{clip-path:url(#clip-path);}.cls-3{fill:#ef8f21;}.cls-4{fill:#cad2d8;}.cls-5{fill:#676733;}.cls-6{fill:#54899b;}.cls-7{clip-path:url(#clip-path-2);}.cls-8{fill:#e5e6e6;}.cls-9{fill:#2f152f;}</style><clipPath
       id="clip-path"><path
         class="cls-1"
         d="m 769.76,-86.15 c -3.77,19.84 -26.91,28.46 -46.61,33 A 1091.79,1091.79 0 0 1 337.61,-35.5 c -52.68,-7 -111.43,-22.47 -136.92,-69.1 -14.61,-26.71 -15.1,-58.56 -15.82,-89 -2.19,-92.69 -6.75,-163.22 -19.53,-255 -1.33,-9.51 47.58,-81.78 54.86,-88.94 64.35,-63.38 122.53,-63.32 212.4,-54.3 85.43,8.58 171.92,35.77 234.93,94.1 69.23,64.08 102.71,158.64 116.23,252 9.31,64.23 16.54,102.36 -14,159.62"
         id="path12980" /></clipPath><clipPath
       id="clip-path-2"><path
         class="cls-1"
         d="M 586,739.12 C 610.16,385.6 107.72,205.45 58.38,467.56 c -5.92,63.67 -30.55,189.69 -35,233.09 -1.08,10.35 6.23,17.61 13.92,24.6 99.38,86.83 466.18,43.62 548.73,13.87"
         id="path12983" /></clipPath><clipPath
       id="clip-path-2-6"><path
         class="cls-1"
         d="M 586,739.12 C 610.16,385.6 107.72,205.45 58.38,467.56 c -5.92,63.67 -30.55,189.69 -35,233.09 -1.08,10.35 6.23,17.61 13.92,24.6 99.38,86.83 466.18,43.62 548.73,13.87"
         id="path12983-0" /></clipPath></defs><g
     id="layer1"
     transform="translate(-21.336252,-47.392633)"><g
       id="g1"
       transform="matrix(8.5470968,0,0,8.5470968,-39.812736,-36.125466)"><g
         id="g21114"
         style="stroke:#f9f9f9;stroke-width:1.2;stroke-dasharray:none;stroke-opacity:1"><g
           data-name="papel+biene"
           id="g312"
           style="stroke:#f9f9f9;stroke-width:1.2;stroke-dasharray:none;stroke-opacity:1"><g
             id="g8239"
             style="stroke:#f9f9f9;stroke-width:1.2;stroke-dasharray:none;stroke-opacity:1"><path
               d="m 14.322208,12.201774 c -0.06491,-0.911167 -1.338049,-1.06374 -1.617697,-0.19536 -0.279648,0.86838 0.843271,1.487418 1.427697,0.78536 0.51,0.12 1.38,0.45 1.53,1.21 0.08,0.43 0.1,2.15 0.1,2.78 h 0.62 c 0,-0.24 0,-2.33 -0.11,-2.9 -0.273611,-0.887896 -1.031396,-1.540757 -1.95,-1.68 z m 8.38,-1.83 c -0.456448,-0.01138 -0.8384,0.343921 -0.86,0.8 -0.01039,0.07296 -0.01039,0.147035 0,0.22 -0.750667,0.568934 -1.309048,1.354157 -1.6,2.25 -0.155364,0.956537 -0.25221,1.921664 -0.29,2.89 h 0.62 c 0.03665,-0.911172 0.126805,-1.819404 0.27,-2.72 0.247883,-0.760596 0.718131,-1.429394 1.35,-1.92 0.12927,0.08211 0.27717,0.130258 0.43,0.14 1.106666,0.03333 1.156666,-1.626667 0.05,-1.66 z"
               fill="#45494c"
               id="path6661"
               style="fill:#1d1d1b;fill-opacity:1;stroke:#f9f9f9;stroke-width:1.2;stroke-dasharray:none;stroke-opacity:1" /><path
               d="m 24.927257,18.519724 -5.251993,-3.06357 a 2.43,2.43 0 0 0 -2.411269,-0.01689 l -5.282774,3.019322 a 2.39,2.39 0 0 0 -1.217211,2.032558 l -0.03078,6.08289 a 2.4,2.4 0 0 0 1.195103,2.089432 l 5.254351,3.153538 a 2.54,2.54 0 0 0 1.209013,0.328465 2.43,2.43 0 0 0 1.20016,-0.391551 l 5.282775,-3.019322 a 2.39,2.39 0 0 0 1.215903,-2.082542 l 0.03104,-6.072893 A 2.4,2.4 0 0 0 24.927254,18.51972 Z m -0.408212,9.623983 -5.282775,3.019319 a 1.68,1.68 0 0 1 -1.680994,-0.016 l -5.241998,-3.063832 a 1.67,1.67 0 0 1 -0.838467,-1.458551 l 0.03078,-6.08289 a 1.69,1.69 0 0 1 0.842264,-1.452546 l 5.282775,-3.01932 a 1.68,1.68 0 0 1 1.680993,0.016 l 5.251996,3.063568 a 1.67,1.67 0 0 1 0.838468,1.458554 l -0.03078,6.082889 a 1.69,1.69 0 0 1 -0.852262,1.452808 z"
               fill="#45494c"
               id="path302"
               style="fill:#1d1d1b;fill-opacity:1;stroke:#f9f9f9;stroke-width:1.2;stroke-dasharray:none;stroke-opacity:1" /></g></g></g><g
         id="Layer_159"
         data-name="Layer 159"
         transform="matrix(0.01149169,0.01149169,-0.01149169,0.01149169,22.825556,17.29183)"
         style="stroke:#f9f9f9;stroke-width:79.9916;stroke-dasharray:none;stroke-opacity:1"><g
           id="g17345"
           style="stroke:#f9f9f9;stroke-width:79.9916;stroke-dasharray:none;stroke-opacity:1"><path
             style="font-variation-settings:'wght' 380;fill:#477282;fill-opacity:1;stroke:#f9f9f9;stroke-width:79.9916;stroke-linejoin:round;stroke-dasharray:none;stroke-opacity:1;paint-order:markers fill stroke"
             d="m -38.428264,984.84664 c 0,0 18.226014,-12.5389 -29.78036,-30.09219 -28.27367,-10.33805 -69.153206,-7.48769 -90.572866,-3.75541 -25.63531,4.46684 -162.35278,52.51526 -16.08437,85.20346 134.60606,30.0819 100.961809,80.4201 100.961809,80.4201 z"
             id="path13597-6-1" /><path
             style="font-variation-settings:'wght' 380;fill:#477282;fill-opacity:1;stroke:#f9f9f9;stroke-width:79.9916;stroke-linejoin:round;stroke-dasharray:none;stroke-opacity:1;paint-order:markers fill stroke"
             d="m -43.808048,973.60396 c 0,0 66.312337,44.46264 66.92053,97.00224 0.358123,30.9435 -15.4486,70.2836 -25.7843572,90.2175 -12.3699308,23.8571 -113.6822248,141.174 -83.3417218,-10.031 C -65.354088,1047.8339 -149.123,1022.1518 -149.123,1022.1518 Z"
             id="path13597-6-1-8" /></g><path
           class="cls-6"
           d="M 535.87421,696.44858 C 560.01421,342.91858 103.7,203.17 54.36,465.28 48.44,529 62.327444,659.30426 57.867444,702.67426 56.051586,755.9518 53.105079,794.08336 18.279597,863.15381 -25.894714,965.12798 -157.62363,1023.7874 -59.611507,1082.9787 12.237794,1126.3699 239.08372,1244.4709 517.36603,772.7152"
           id="path12999"
           style="fill:#54899b;stroke:#f9f9f9;stroke-width:79.9916;stroke-dasharray:none;stroke-opacity:1" /><path
           class="cls-8"
           d="M 144.04745,844.9418 C 23.460567,1074.225 127.43837,1060.2274 239.38902,1031.2729 340.23703,1005.19 443.97901,930.27414 509.51046,791.95975 551.93166,702.42315 557.9176,566.3948 490.50992,492.3656 433.61343,429.88011 364.08149,335.5269 232.81562,372.43381 216.39736,377.05 193.13,398.87 187.91,446.46 c -4.63,42.25 12.64,94.33 18.23,142.24 5,43.05 -1.63,83.26 -4.11,101 -5.56,39.57 -42.80513,126.38352 -57.98255,155.2418 z"
           id="path13001"
           style="fill:#e5e6e6;stroke:#f9f9f9;stroke-width:79.9916;stroke-dasharray:none;stroke-opacity:1" /></g><g
         id="g25147"><g
           data-name="papel+biene"
           id="g25125"><g
             id="g25105"><path
               d="m 14.322208,12.201774 c -0.06491,-0.911167 -1.338049,-1.06374 -1.617697,-0.19536 -0.279648,0.86838 0.843271,1.487418 1.427697,0.78536 0.51,0.12 1.38,0.45 1.53,1.21 0.08,0.43 0.1,2.15 0.1,2.78 h 0.62 c 0,-0.24 0,-2.33 -0.11,-2.9 -0.273611,-0.887896 -1.031396,-1.540757 -1.95,-1.68 z m 8.38,-1.83 c -0.456448,-0.01138 -0.8384,0.343921 -0.86,0.8 -0.01039,0.07296 -0.01039,0.147035 0,0.22 -0.750667,0.568934 -1.309048,1.354157 -1.6,2.25 -0.155364,0.956537 -0.25221,1.921664 -0.29,2.89 h 0.62 c 0.03665,-0.911172 0.126805,-1.819404 0.27,-2.72 0.247883,-0.760596 0.718131,-1.429394 1.35,-1.92 0.12927,0.08211 0.27717,0.130258 0.43,0.14 1.106666,0.03333 1.156666,-1.626667 0.05,-1.66 z"
               fill="#45494c"
               id="path25097"
               style="fill:#1d1d1b;fill-opacity:1" /><path
               style="font-variation-settings:'wght' 380;fill:#f9e464;fill-opacity:1;stroke-width:1.991;stroke-linejoin:round;paint-order:markers fill stroke"
               d="m 11.361721,19.442985 -0.172224,6.421569 0.3833,1.516269 6.160775,3.458172 4.561414,-1.561704 2.889634,-1.854814 0.634063,-0.811729 -0.172224,-6.60822 -0.03427,-0.604489 -6.603939,-3.915285 -2.066466,0.619764 z"
               id="path25099" /><path
               style="font-variation-settings:'wght' 380;fill:#fcdb38;fill-opacity:1;stroke-width:1.991;stroke-linejoin:round;paint-order:markers fill stroke"
               d="m 20.020989,29.858483 c 0,0 2.459863,-2.751427 2.997942,-6.112113 0.53808,-3.360687 0.78836,-4.109532 -0.506431,-5.948071 -1.294791,-1.838539 1.829518,0.910953 1.829518,0.910953 0,0 1.304969,0.455865 1.318901,0.913965 0.01393,0.458101 -0.0679,8.0417 -0.0679,8.0417 z"
               id="path25101" /><path
               d="m 24.927257,18.519724 -5.251993,-3.06357 a 2.43,2.43 0 0 0 -2.411269,-0.01689 l -5.282774,3.019322 a 2.39,2.39 0 0 0 -1.217211,2.032558 l -0.03078,6.08289 a 2.4,2.4 0 0 0 1.195103,2.089432 l 5.254351,3.153538 a 2.54,2.54 0 0 0 1.209013,0.328465 2.43,2.43 0 0 0 1.20016,-0.391551 l 5.282775,-3.019322 a 2.39,2.39 0 0 0 1.215903,-2.082542 l 0.03104,-6.072893 A 2.4,2.4 0 0 0 24.927254,18.51972 Z m -0.408212,9.623983 -5.282775,3.019319 a 1.68,1.68 0 0 1 -1.680994,-0.016 l -5.241998,-3.063832 a 1.67,1.67 0 0 1 -0.838467,-1.458551 l 0.03078,-6.08289 a 1.69,1.69 0 0 1 0.842264,-1.452546 l 5.282775,-3.01932 a 1.68,1.68 0 0 1 1.680993,0.016 l 5.251996,3.063568 a 1.67,1.67 0 0 1 0.838468,1.458554 l -0.03078,6.082889 a 1.69,1.69 0 0 1 -0.852262,1.452808 z"
               fill="#45494c"
               id="path25103"
               style="fill:#1d1d1b;fill-opacity:1" /></g><g
             id="g25111"><path
               d="m 18.376601,27.69438 a 2.8809609,2.8809609 0 0 0 1.436403,-0.362285 l 5.725699,-3.177602 a 2.3623879,2.3623879 0 0 0 0.182206,-0.856841 l -0.01316,-1.142706 a 1.7861958,1.7861958 0 0 1 -0.589496,0.515794 l -5.859471,3.236768 a 1.9206406,1.9206406 0 0 1 -1.853958,-0.03627 l -5.73503,-3.468147 a 1.8246086,1.8246086 0 0 1 -0.709948,-0.769732 l 0.01593,1.38277 a 2.1799271,2.1799271 0 0 0 0.114258,0.747783 l 5.8028,3.515386 a 2.8809609,2.8809609 0 0 0 1.483772,0.415081 z"
               fill="#45494c"
               id="path25107"
               style="fill:#1d1d1b;fill-opacity:1;stroke-width:0.96032" /><path
               d="m 18.373905,31.669587 c 0.502194,0.0065 1.129956,-0.07408 1.568994,-0.317983 l 5.593108,-3.688141 c 0.113622,-0.271757 0.175419,-0.562366 0.182206,-0.856841 l -0.01316,-1.142706 c -0.155916,0.213429 -0.357255,0.389596 -0.589496,0.515794 l -5.859471,3.236768 c -0.583279,0.306791 -1.283124,0.293099 -1.853958,-0.03627 l -5.73503,-3.468147 C 11.360325,25.73036 11.11351,25.462761 10.95715,25.142329 l 0.01593,1.38277 c -0.0058,0.254015 0.03288,0.507085 0.114258,0.747783 l 5.836128,3.954662 c 0.447735,0.2705 0.932418,0.446031 1.45552,0.447111 z"
               fill="#45494c"
               id="path25109"
               style="fill:#1d1d1b;fill-opacity:1;stroke-width:0.96032" /></g><g
             id="g25117"><ellipse
               cx="-18.757517"
               cy="20.750729"
               rx="1.22"
               ry="0.88"
               transform="rotate(-88.24)"
               fill="#45494c"
               id="ellipse25113"
               style="fill:#1d1d1b;fill-opacity:1" /><ellipse
               cx="-18.842352"
               cy="17.376236"
               rx="1.22"
               ry="0.88"
               transform="rotate(-88.24)"
               fill="#45494c"
               id="ellipse25115"
               style="fill:#1d1d1b;fill-opacity:1" /></g><g
             id="g25123"><ellipse
               cx="-20.989075"
               cy="21.802446"
               rx="0.44"
               ry="0.72000003"
               transform="rotate(-88.24)"
               fill="#45494c"
               id="ellipse25119"
               style="fill:#e22d5d;fill-opacity:1" /><ellipse
               cx="-21.1703"
               cy="16.429075"
               rx="0.44"
               ry="0.72000003"
               transform="rotate(-88.24)"
               fill="#45494c"
               id="ellipse25121"
               style="fill:#e22d5d;fill-opacity:1" /></g></g><g
           id="g25145"
           data-name="Layer 159"
           transform="matrix(0.01149169,0.01149169,-0.01149169,0.01149169,22.825556,17.29183)"><g
             id="g25131"><path
               style="font-variation-settings:'wght' 380;fill:#477282;fill-opacity:1;stroke-width:2.17841;stroke-linejoin:round;paint-order:markers fill stroke"
               d="m 16.771498,26.246594 c 0,0 0.348027,-0.09022 -0.287598,-0.625056 -0.374356,-0.314994 -1.014516,-0.498619 -1.362381,-0.560642 -0.416329,-0.07423 -2.622507,-0.307966 -0.719097,1.211871 1.903409,1.519836 1.146693,1.027582 1.146693,1.027582 z"
               id="path25127"
               transform="matrix(43.509701,-43.509701,43.509701,43.509701,-1745.4955,240.77077)" /><path
               style="font-variation-settings:'wght' 380;fill:#477282;fill-opacity:1;stroke-width:134.042;stroke-linejoin:round;paint-order:markers fill stroke"
               d="m -38.428264,984.84664 c 0,0 18.226014,-12.5389 -29.78036,-30.09219 -28.27367,-10.33805 -69.153206,-7.48769 -90.572866,-3.75541 -25.63531,4.46684 -162.35278,52.51526 -16.08437,85.20346 134.60606,30.0819 100.961809,80.4201 100.961809,80.4201 z"
               id="path25129" /></g><path
             style="font-variation-settings:'wght' 380;fill:#477282;fill-opacity:1;stroke-width:134.042;stroke-linejoin:round;paint-order:markers fill stroke"
             d="m -43.808048,973.60396 c 0,0 66.312337,44.46264 66.92053,97.00224 0.358123,30.9435 -15.4486,70.2836 -25.7843572,90.2175 -12.3699308,23.8571 -113.6822248,141.174 -83.3417218,-10.031 C -65.354088,1047.8339 -149.123,1022.1518 -149.123,1022.1518 Z"
             id="path25133" /><path
             class="cls-6"
             d="M 535.87421,696.44858 C 560.01421,342.91858 103.7,203.17 54.36,465.28 48.44,529 62.327444,659.30426 57.867444,702.67426 56.051586,755.9518 53.105079,794.08336 18.279597,863.15381 -25.894714,965.12798 -157.62363,1023.7874 -59.611507,1082.9787 12.237794,1126.3699 239.08372,1244.4709 517.36603,772.7152"
             id="path25135"
             style="fill:#54899b" /><path
             class="cls-8"
             d="M 144.04745,844.9418 C 23.460567,1074.225 127.43837,1060.2274 239.38902,1031.2729 340.23703,1005.19 443.97901,930.27414 509.51046,791.95975 551.93166,702.42315 557.9176,566.3948 490.50992,492.3656 433.61343,429.88011 364.08149,335.5269 232.81562,372.43381 216.39736,377.05 193.13,398.87 187.91,446.46 c -4.63,42.25 12.64,94.33 18.23,142.24 5,43.05 -1.63,83.26 -4.11,101 -5.56,39.57 -42.80513,126.38352 -57.98255,155.2418 z"
             id="path25137"
             style="fill:#e5e6e6" /><path
             class="cls-9"
             d="m 117,556.16 c 5,-3 17.66,3.18 23,5.58 25.94,11.6 44.94,40.4 39.71,68.32 A 38.84,38.84 0 0 1 175.25,642.6 40.42,40.42 0 0 1 165,653.83 C 146.68,668 119.88,670.15 99.53,659.08 79.18,648.01 66.4,624.33 68.36,601.25 c 1.22,-14.28 8,-28.33 19.42,-37 11.42,-8.67 27.65,-11.14 40.59,-5"
             id="path25139"
             style="fill:#2f152f" /><path
             class="cls-9"
             d="m 405.03177,461.79934 a 382.27,382.27 0 0 0 14.85216,49.09017 l -1.0888,-2.97499 a 13.84,13.84 0 0 1 0.70899,3.20246 l -0.26865,-3.15655 a 12.79,12.79 0 0 1 -0.16192,3.10849 l 0.55231,-3.01056 a 11.46,11.46 0 0 1 -0.80461,2.47237 l 1.28966,-2.73339 a 10.92,10.92 0 0 1 -1.35965,2.09339 l 1.93361,-2.32288 a 9.38,9.38 0 0 1 -1.59011,1.37625 l 2.49611,-1.77142 a 8.69,8.69 0 0 1 -1.60703,0.83715 l 2.97498,-1.08879 a 8.75,8.75 0 0 1 -2.1187,0.46905 l 3.15655,-0.26865 c -2.02405,0.11011 -4.04683,-0.005 -6.048,-0.0233 L 405.818,506.98762 394.17,506.88291 c -2.86454,-0.0316 -5.75614,-0.13907 -8.60026,0.0604 a 45.58,45.58 0 0 0 -5.70142,0.61698 30.88,30.88 0 0 0 -5.63627,1.88281 12.71,12.71 0 0 0 -2.32,1.27154 31,31 0 0 0 -4.376,3.36545 62.92,62.92 0 0 0 -5.7986,6.88619 q -1.79804,2.33382 -3.59392,4.67741 l -14.89463,19.32643 c -3.50054,4.54408 -6.96746,9.10121 -10.50048,13.59103 l -0.35939,0.45852 1.93361,-2.32287 a 9.27,9.27 0 0 1 -1.70414,1.55512 l 2.49611,-1.77142 a 8.79,8.79 0 0 1 -1.66345,0.85989 l 2.97498,-1.0888 a 8.51,8.51 0 0 1 -2.08941,0.46257 l 3.15655,-0.26865 a 9.38,9.38 0 0 1 -1.84167,-0.0839 l 3.02032,0.55015 a 9.44,9.44 0 0 1 -2.12214,-0.65682 l 2.73338,1.28966 a 10.49,10.49 0 0 1 -1.98934,-1.25978 l 2.32288,1.93361 a 63,63 0 0 1 -5.20736,-5.52502 l -10.66591,-11.62945 -24.43989,-26.65741 -5.65702,-6.12194 a 11.82,11.82 0 0 0 -16.70422,-0.64455 11.94,11.94 0 0 0 -3.77558,8.06681 12.38,12.38 0 0 0 3.13103,8.63741 l 13.64721,14.87168 23.20443,25.33316 7.11458,7.7555 c 0.44757,0.49495 0.88537,0.99207 1.34815,1.46318 a 20.46,20.46 0 0 0 9.83107,5.73044 21.8,21.8 0 0 0 8.16172,0.36443 18.82,18.82 0 0 0 5.48758,-1.76796 c 4.6397,-2.17429 7.58706,-6.71881 10.63267,-10.6808 l 9.55476,-12.35744 16.40171,-21.30906 c 0.65363,-0.84117 1.3051,-1.6921 1.98906,-2.48878 l -1.93577,2.31311 a 22.26,22.26 0 0 1 3.58864,-3.49841 l -2.50468,1.64018 a 13.34,13.34 0 0 1 3.13052,-1.63534 l -2.97498,1.0888 a 20,20 0 0 1 4.55624,-0.8858 l -3.16631,0.27082 c 2.93415,-0.20918 5.91034,-0.0897 8.85515,-0.0656 l 12.1502,0.10619 12.20333,0.11492 c 3.18995,0.021 6.86883,0.35363 9.92066,-0.52685 a 21,21 0 0 0 14.19247,-13.38417 21.44,21.44 0 0 0 1.02476,-9.25019 19.47,19.47 0 0 0 -0.60309,-4.06576 c -0.62422,-2.03313 -1.45893,-3.99919 -2.18623,-5.98902 l 1.08879,2.97498 a 359.9,359.9 0 0 1 -12.90615,-43.81612 12.25,12.25 0 0 0 -5.18525,-7.41447 12,12 0 0 0 -8.91026,-1.57116 c -6.16864,1.65245 -10.44801,7.62873 -8.98562,14.09551 z"
             id="path25141"
             style="fill:#2f152f" /><path
             style="font-variation-settings:'wght' 380;fill:#54899b;fill-opacity:1;stroke-width:1.991;stroke-linejoin:round;paint-order:markers fill stroke"
             d="m 16.826513,27.62828 c 0,0 0.124755,0.688889 -0.186969,1.380597 -0.183592,0.407386 -0.637399,0.809652 -0.898874,0.996936 -0.312936,0.224144 -2.034104,1.279556 -1.068428,-0.724012 0.965677,-2.003568 0.777784,-1.882268 0.777784,-1.882268 z"
             id="path25143"
             transform="matrix(43.509701,-43.509701,43.509701,43.509701,-1745.4955,240.77077)" /></g></g></g></g></svg>
